# MagicaVoxel @ Ephtracy

# group
o 

# material
mtllib Tilemap_C0_0000.mtl
usemtl palette

# normals
vn -1 0 0
vn 1 0 0
vn 0 0 1
vn 0 0 -1
vn 0 -1 0
vn 0 1 0

# texcoords
vt 0.947266 0.5
vt 0.951172 0.5
vt 0.982422 0.5
vt 0.990234 0.5

# verts
v -1.6 1.6 1.6
v -1.6 1.6 1.4
v -1.6 1.6 1.3
v -1.6 1.6 1.2
v -1.6 1.6 0.8
v -1.6 1.6 0.7
v -1.6 1.6 0.6
v -1.6 1.6 0.2
v -1.6 1.6 0.1
v -1.6 1.6 0
v -1.6 1.6 -0.4
v -1.6 1.6 -0.5
v -1.6 1.6 -0.8
v -1.6 1.6 -1.1
v -1.6 1.6 -1.2
v -1.6 1.6 -1.6
v -1.6 4.8 1.6
v -1.6 4.8 1.4
v -1.6 4.8 1.3
v -1.6 4.8 1.2
v -1.6 4.8 0.8
v -1.6 4.8 0.7
v -1.6 4.8 0.6
v -1.6 4.8 0.2
v -1.6 4.8 0.1
v -1.6 4.8 0
v -1.6 4.8 -0.4
v -1.6 4.8 -0.5
v -1.6 4.8 -0.8
v -1.6 4.8 -1.1
v -1.6 4.8 -1.2
v -1.6 4.8 -1.6
v 1.6 1.6 1.6
v 1.6 1.6 1.4
v 1.6 1.6 1.3
v 1.6 1.6 1.2
v 1.6 1.6 0.8
v 1.6 1.6 0.7
v 1.6 1.6 0.6
v 1.6 1.6 0.2
v 1.6 1.6 0.1
v 1.6 1.6 0
v 1.6 1.6 -0.4
v 1.6 1.6 -0.5
v 1.6 1.6 -0.6
v 1.6 1.6 -0.8
v 1.6 1.6 -0.9
v 1.6 1.6 -1.1
v 1.6 1.6 -1.2
v 1.6 1.6 -1.6
v 1.6 4.8 1.6
v 1.6 4.8 1.4
v 1.6 4.8 1.3
v 1.6 4.8 1.2
v 1.6 4.8 0.8
v 1.6 4.8 0.7
v 1.6 4.8 0.6
v 1.6 4.8 0.2
v 1.6 4.8 0.1
v 1.6 4.8 0
v 1.6 4.8 -0.4
v 1.6 4.8 -0.5
v 1.6 4.8 -0.6
v 1.6 4.8 -0.8
v 1.6 4.8 -0.9
v 1.6 4.8 -1.1
v 1.6 4.8 -1.2
v 1.6 4.8 -1.6
v -1.6 1.6 1.6
v -1.6 4.8 1.6
v -1 1.6 1.6
v -1 4.8 1.6
v -0.9 1.6 1.6
v -0.9 4.8 1.6
v -0.2 1.6 1.6
v -0.2 4.8 1.6
v -0.1 1.6 1.6
v -0.1 4.8 1.6
v 0.6 1.6 1.6
v 0.6 4.8 1.6
v 0.7 1.6 1.6
v 0.7 4.8 1.6
v 1.4 1.6 1.6
v 1.4 4.8 1.6
v 1.5 1.6 1.6
v 1.5 4.8 1.6
v 1.6 1.6 1.6
v 1.6 4.8 1.6
v -1.6 1.6 -1.6
v -1.6 4.8 -1.6
v -0.1 1.6 -1.6
v -0.1 4.8 -1.6
v 0 1.6 -1.6
v 0 4.8 -1.6
v 1.5 1.6 -1.6
v 1.5 4.8 -1.6
v 1.6 1.6 -1.6
v 1.6 4.8 -1.6
v -1.6 1.6 1.6
v -1 1.6 1.6
v -0.9 1.6 1.6
v -0.2 1.6 1.6
v -0.1 1.6 1.6
v 0.6 1.6 1.6
v 0.7 1.6 1.6
v 1.4 1.6 1.6
v 1.5 1.6 1.6
v 1.6 1.6 1.6
v -1.6 1.6 1.4
v -1 1.6 1.4
v -0.9 1.6 1.4
v -0.2 1.6 1.4
v -0.1 1.6 1.4
v 0.6 1.6 1.4
v 0.7 1.6 1.4
v 1.4 1.6 1.4
v 1.5 1.6 1.4
v 1.6 1.6 1.4
v -1.6 1.6 1.3
v -1 1.6 1.3
v -0.9 1.6 1.3
v -0.2 1.6 1.3
v -0.1 1.6 1.3
v 0.6 1.6 1.3
v 0.7 1.6 1.3
v 1.4 1.6 1.3
v 1.5 1.6 1.3
v 1.6 1.6 1.3
v -1.6 1.6 1.2
v -1.5 1.6 1.2
v -1.4 1.6 1.2
v -0.7 1.6 1.2
v -0.6 1.6 1.2
v 0.1 1.6 1.2
v 0.2 1.6 1.2
v 0.9 1.6 1.2
v 1 1.6 1.2
v 1.6 1.6 1.2
v -1.6 1.6 0.8
v -1.5 1.6 0.8
v -1.4 1.6 0.8
v -0.7 1.6 0.8
v -0.6 1.6 0.8
v 0.1 1.6 0.8
v 0.2 1.6 0.8
v 0.9 1.6 0.8
v 1 1.6 0.8
v 1.6 1.6 0.8
v -1.6 1.6 0.7
v -1.5 1.6 0.7
v -1.4 1.6 0.7
v -0.7 1.6 0.7
v -0.6 1.6 0.7
v 0.1 1.6 0.7
v 0.2 1.6 0.7
v 0.9 1.6 0.7
v 1 1.6 0.7
v 1.6 1.6 0.7
v -1.6 1.6 0.6
v -1 1.6 0.6
v -0.9 1.6 0.6
v -0.2 1.6 0.6
v -0.1 1.6 0.6
v 0.6 1.6 0.6
v 0.7 1.6 0.6
v 1.4 1.6 0.6
v 1.5 1.6 0.6
v 1.6 1.6 0.6
v -1.6 1.6 0.2
v -1 1.6 0.2
v -0.9 1.6 0.2
v -0.2 1.6 0.2
v -0.1 1.6 0.2
v 0.6 1.6 0.2
v 0.7 1.6 0.2
v 1.4 1.6 0.2
v 1.5 1.6 0.2
v 1.6 1.6 0.2
v -1.6 1.6 0.1
v -1 1.6 0.1
v -0.9 1.6 0.1
v -0.2 1.6 0.1
v -0.1 1.6 0.1
v 0.6 1.6 0.1
v 0.7 1.6 0.1
v 1.4 1.6 0.1
v 1.5 1.6 0.1
v 1.6 1.6 0.1
v -1.6 1.6 0
v -1.3 1.6 0
v -1.2 1.6 0
v -0.5 1.6 0
v -0.4 1.6 0
v 0.3 1.6 0
v 0.4 1.6 0
v 1.1 1.6 0
v 1.2 1.6 0
v 1.6 1.6 0
v -1.6 1.6 -0.4
v -1.3 1.6 -0.4
v -1.2 1.6 -0.4
v -0.5 1.6 -0.4
v -0.4 1.6 -0.4
v 0.3 1.6 -0.4
v 0.4 1.6 -0.4
v 1.1 1.6 -0.4
v 1.2 1.6 -0.4
v 1.6 1.6 -0.4
v -1.6 1.6 -0.5
v -1.3 1.6 -0.5
v -1.2 1.6 -0.5
v -0.5 1.6 -0.5
v -0.4 1.6 -0.5
v 0.3 1.6 -0.5
v 0.4 1.6 -0.5
v 1.1 1.6 -0.5
v 1.2 1.6 -0.5
v 1.6 1.6 -0.5
v -1.5 1.6 -0.6
v -0.8 1.6 -0.6
v -0.7 1.6 -0.6
v 0 1.6 -0.6
v 0.1 1.6 -0.6
v 0.8 1.6 -0.6
v 0.9 1.6 -0.6
v 1.6 1.6 -0.6
v -1.6 1.6 -0.8
v -1.5 1.6 -0.8
v -0.8 1.6 -0.8
v -0.7 1.6 -0.8
v 0 1.6 -0.8
v 0.1 1.6 -0.8
v 0.8 1.6 -0.8
v 0.9 1.6 -0.8
v 1.6 1.6 -0.8
v -1.5 1.6 -0.9
v -0.8 1.6 -0.9
v -0.7 1.6 -0.9
v 0 1.6 -0.9
v 0.1 1.6 -0.9
v 0.8 1.6 -0.9
v 0.9 1.6 -0.9
v 1.6 1.6 -0.9
v -1.6 1.6 -1.1
v -0.1 1.6 -1.1
v 0 1.6 -1.1
v 1.5 1.6 -1.1
v 1.6 1.6 -1.1
v -1.6 1.6 -1.2
v -0.1 1.6 -1.2
v 0 1.6 -1.2
v 1.5 1.6 -1.2
v 1.6 1.6 -1.2
v -1.6 1.6 -1.6
v -0.1 1.6 -1.6
v 0 1.6 -1.6
v 1.5 1.6 -1.6
v 1.6 1.6 -1.6
v -1.6 4.8 1.6
v -1 4.8 1.6
v -0.9 4.8 1.6
v -0.2 4.8 1.6
v -0.1 4.8 1.6
v 0.6 4.8 1.6
v 0.7 4.8 1.6
v 1.4 4.8 1.6
v 1.5 4.8 1.6
v 1.6 4.8 1.6
v -1.6 4.8 1.4
v -1 4.8 1.4
v -0.9 4.8 1.4
v -0.2 4.8 1.4
v -0.1 4.8 1.4
v 0.6 4.8 1.4
v 0.7 4.8 1.4
v 1.4 4.8 1.4
v 1.5 4.8 1.4
v 1.6 4.8 1.4
v -1.6 4.8 1.3
v -1 4.8 1.3
v -0.9 4.8 1.3
v -0.2 4.8 1.3
v -0.1 4.8 1.3
v 0.6 4.8 1.3
v 0.7 4.8 1.3
v 1.4 4.8 1.3
v 1.5 4.8 1.3
v 1.6 4.8 1.3
v -1.6 4.8 1.2
v -1.5 4.8 1.2
v -1.4 4.8 1.2
v -0.7 4.8 1.2
v -0.6 4.8 1.2
v 0.1 4.8 1.2
v 0.2 4.8 1.2
v 0.9 4.8 1.2
v 1 4.8 1.2
v 1.6 4.8 1.2
v -1.6 4.8 0.8
v -1.5 4.8 0.8
v -1.4 4.8 0.8
v -0.7 4.8 0.8
v -0.6 4.8 0.8
v 0.1 4.8 0.8
v 0.2 4.8 0.8
v 0.9 4.8 0.8
v 1 4.8 0.8
v 1.6 4.8 0.8
v -1.6 4.8 0.7
v -1.5 4.8 0.7
v -1.4 4.8 0.7
v -0.7 4.8 0.7
v -0.6 4.8 0.7
v 0.1 4.8 0.7
v 0.2 4.8 0.7
v 0.9 4.8 0.7
v 1 4.8 0.7
v 1.6 4.8 0.7
v -1.6 4.8 0.6
v -1 4.8 0.6
v -0.9 4.8 0.6
v -0.2 4.8 0.6
v -0.1 4.8 0.6
v 0.6 4.8 0.6
v 0.7 4.8 0.6
v 1.4 4.8 0.6
v 1.5 4.8 0.6
v 1.6 4.8 0.6
v -1.6 4.8 0.2
v -1 4.8 0.2
v -0.9 4.8 0.2
v -0.2 4.8 0.2
v -0.1 4.8 0.2
v 0.6 4.8 0.2
v 0.7 4.8 0.2
v 1.4 4.8 0.2
v 1.5 4.8 0.2
v 1.6 4.8 0.2
v -1.6 4.8 0.1
v -1 4.8 0.1
v -0.9 4.8 0.1
v -0.2 4.8 0.1
v -0.1 4.8 0.1
v 0.6 4.8 0.1
v 0.7 4.8 0.1
v 1.4 4.8 0.1
v 1.5 4.8 0.1
v 1.6 4.8 0.1
v -1.6 4.8 0
v -1.3 4.8 0
v -1.2 4.8 0
v -0.5 4.8 0
v -0.4 4.8 0
v 0.3 4.8 0
v 0.4 4.8 0
v 1.1 4.8 0
v 1.2 4.8 0
v 1.6 4.8 0
v -1.6 4.8 -0.4
v -1.3 4.8 -0.4
v -1.2 4.8 -0.4
v -0.5 4.8 -0.4
v -0.4 4.8 -0.4
v 0.3 4.8 -0.4
v 0.4 4.8 -0.4
v 1.1 4.8 -0.4
v 1.2 4.8 -0.4
v 1.6 4.8 -0.4
v -1.6 4.8 -0.5
v -1.3 4.8 -0.5
v -1.2 4.8 -0.5
v -0.5 4.8 -0.5
v -0.4 4.8 -0.5
v 0.3 4.8 -0.5
v 0.4 4.8 -0.5
v 1.1 4.8 -0.5
v 1.2 4.8 -0.5
v 1.6 4.8 -0.5
v -1.5 4.8 -0.6
v -0.8 4.8 -0.6
v -0.7 4.8 -0.6
v 0 4.8 -0.6
v 0.1 4.8 -0.6
v 0.8 4.8 -0.6
v 0.9 4.8 -0.6
v 1.6 4.8 -0.6
v -1.6 4.8 -0.8
v -1.5 4.8 -0.8
v -0.8 4.8 -0.8
v -0.7 4.8 -0.8
v 0 4.8 -0.8
v 0.1 4.8 -0.8
v 0.8 4.8 -0.8
v 0.9 4.8 -0.8
v 1.6 4.8 -0.8
v -1.5 4.8 -0.9
v -0.8 4.8 -0.9
v -0.7 4.8 -0.9
v 0 4.8 -0.9
v 0.1 4.8 -0.9
v 0.8 4.8 -0.9
v 0.9 4.8 -0.9
v 1.6 4.8 -0.9
v -1.6 4.8 -1.1
v -0.1 4.8 -1.1
v 0 4.8 -1.1
v 1.5 4.8 -1.1
v 1.6 4.8 -1.1
v -1.6 4.8 -1.2
v -0.1 4.8 -1.2
v 0 4.8 -1.2
v 1.5 4.8 -1.2
v 1.6 4.8 -1.2
v -1.6 4.8 -1.6
v -0.1 4.8 -1.6
v 0 4.8 -1.6
v 1.5 4.8 -1.6
v 1.6 4.8 -1.6

# faces
f 17/2/1 2/2/1 1/2/1
f 18/3/1 3/3/1 2/3/1
f 18/2/1 2/2/1 17/2/1
f 19/1/1 4/1/1 3/1/1
f 19/3/1 3/3/1 18/3/1
f 20/2/1 5/2/1 4/2/1
f 20/1/1 4/1/1 19/1/1
f 21/3/1 6/3/1 5/3/1
f 21/2/1 5/2/1 20/2/1
f 22/1/1 7/1/1 6/1/1
f 22/3/1 6/3/1 21/3/1
f 23/2/1 8/2/1 7/2/1
f 23/1/1 7/1/1 22/1/1
f 24/3/1 9/3/1 8/3/1
f 24/2/1 8/2/1 23/2/1
f 25/1/1 10/1/1 9/1/1
f 25/3/1 9/3/1 24/3/1
f 26/2/1 11/2/1 10/2/1
f 26/1/1 10/1/1 25/1/1
f 27/3/1 12/3/1 11/3/1
f 27/2/1 11/2/1 26/2/1
f 28/1/1 13/1/1 12/1/1
f 28/3/1 12/3/1 27/3/1
f 29/4/1 14/4/1 13/4/1
f 29/1/1 13/1/1 28/1/1
f 30/2/1 15/2/1 14/2/1
f 30/4/1 14/4/1 29/4/1
f 31/3/1 16/3/1 15/3/1
f 31/2/1 15/2/1 30/2/1
f 32/3/1 16/3/1 31/3/1
f 33/2/2 34/2/2 51/2/2
f 34/3/2 35/3/2 52/3/2
f 51/2/2 34/2/2 52/2/2
f 35/1/2 36/1/2 53/1/2
f 52/3/2 35/3/2 53/3/2
f 36/2/2 37/2/2 54/2/2
f 53/1/2 36/1/2 54/1/2
f 37/3/2 38/3/2 55/3/2
f 54/2/2 37/2/2 55/2/2
f 38/1/2 39/1/2 56/1/2
f 55/3/2 38/3/2 56/3/2
f 39/2/2 40/2/2 57/2/2
f 56/1/2 39/1/2 57/1/2
f 40/3/2 41/3/2 58/3/2
f 57/2/2 40/2/2 58/2/2
f 41/1/2 42/1/2 59/1/2
f 58/3/2 41/3/2 59/3/2
f 42/2/2 43/2/2 60/2/2
f 59/1/2 42/1/2 60/1/2
f 43/3/2 44/3/2 61/3/2
f 60/2/2 43/2/2 61/2/2
f 44/1/2 45/1/2 62/1/2
f 61/3/2 44/3/2 62/3/2
f 45/2/2 46/2/2 63/2/2
f 62/1/2 45/1/2 63/1/2
f 46/1/2 47/1/2 64/1/2
f 63/2/2 46/2/2 64/2/2
f 47/4/2 48/4/2 65/4/2
f 64/1/2 47/1/2 65/1/2
f 48/1/2 49/1/2 66/1/2
f 65/4/2 48/4/2 66/4/2
f 49/2/2 50/2/2 67/2/2
f 66/1/2 49/1/2 67/1/2
f 67/2/2 50/2/2 68/2/2
f 71/2/3 70/2/3 69/2/3
f 72/2/3 70/2/3 71/2/3
f 73/1/3 72/1/3 71/1/3
f 74/1/3 72/1/3 73/1/3
f 75/2/3 74/2/3 73/2/3
f 76/2/3 74/2/3 75/2/3
f 77/1/3 76/1/3 75/1/3
f 78/1/3 76/1/3 77/1/3
f 79/2/3 78/2/3 77/2/3
f 80/2/3 78/2/3 79/2/3
f 81/1/3 80/1/3 79/1/3
f 82/1/3 80/1/3 81/1/3
f 83/2/3 82/2/3 81/2/3
f 84/2/3 82/2/3 83/2/3
f 85/1/3 84/1/3 83/1/3
f 86/1/3 84/1/3 85/1/3
f 87/2/3 86/2/3 85/2/3
f 88/2/3 86/2/3 87/2/3
f 89/3/4 90/3/4 91/3/4
f 91/3/4 90/3/4 92/3/4
f 91/2/4 92/2/4 93/2/4
f 93/2/4 92/2/4 94/2/4
f 93/3/4 94/3/4 95/3/4
f 95/3/4 94/3/4 96/3/4
f 95/2/4 96/2/4 97/2/4
f 97/2/4 96/2/4 98/2/4
f 109/2/5 100/2/5 99/2/5
f 110/1/5 101/1/5 100/1/5
f 110/2/5 100/2/5 109/2/5
f 111/2/5 102/2/5 101/2/5
f 111/1/5 101/1/5 110/1/5
f 112/1/5 103/1/5 102/1/5
f 112/2/5 102/2/5 111/2/5
f 113/2/5 104/2/5 103/2/5
f 113/1/5 103/1/5 112/1/5
f 114/1/5 105/1/5 104/1/5
f 114/2/5 104/2/5 113/2/5
f 115/2/5 106/2/5 105/2/5
f 115/1/5 105/1/5 114/1/5
f 116/1/5 107/1/5 106/1/5
f 116/2/5 106/2/5 115/2/5
f 117/2/5 108/2/5 107/2/5
f 117/1/5 107/1/5 116/1/5
f 118/2/5 108/2/5 117/2/5
f 119/3/5 110/3/5 109/3/5
f 120/2/5 111/2/5 110/2/5
f 120/3/5 110/3/5 119/3/5
f 121/3/5 112/3/5 111/3/5
f 121/2/5 111/2/5 120/2/5
f 122/2/5 113/2/5 112/2/5
f 122/3/5 112/3/5 121/3/5
f 123/3/5 114/3/5 113/3/5
f 123/2/5 113/2/5 122/2/5
f 124/2/5 115/2/5 114/2/5
f 124/3/5 114/3/5 123/3/5
f 125/3/5 116/3/5 115/3/5
f 125/2/5 115/2/5 124/2/5
f 126/2/5 117/2/5 116/2/5
f 126/3/5 116/3/5 125/3/5
f 127/3/5 118/3/5 117/3/5
f 127/2/5 117/2/5 126/2/5
f 128/3/5 118/3/5 127/3/5
f 129/1/5 124/1/5 123/1/5
f 129/1/5 120/1/5 119/1/5
f 129/1/5 128/1/5 127/1/5
f 129/1/5 127/1/5 126/1/5
f 129/1/5 126/1/5 125/1/5
f 129/1/5 125/1/5 124/1/5
f 129/1/5 123/1/5 122/1/5
f 129/1/5 122/1/5 121/1/5
f 129/1/5 121/1/5 120/1/5
f 130/1/5 128/1/5 129/1/5
f 131/1/5 128/1/5 130/1/5
f 132/1/5 128/1/5 131/1/5
f 133/1/5 128/1/5 132/1/5
f 134/1/5 128/1/5 133/1/5
f 135/1/5 128/1/5 134/1/5
f 136/1/5 128/1/5 135/1/5
f 137/1/5 128/1/5 136/1/5
f 138/1/5 128/1/5 137/1/5
f 139/2/5 130/2/5 129/2/5
f 140/1/5 131/1/5 130/1/5
f 140/2/5 130/2/5 139/2/5
f 141/2/5 132/2/5 131/2/5
f 141/1/5 131/1/5 140/1/5
f 142/1/5 133/1/5 132/1/5
f 142/2/5 132/2/5 141/2/5
f 143/2/5 134/2/5 133/2/5
f 143/1/5 133/1/5 142/1/5
f 144/1/5 135/1/5 134/1/5
f 144/2/5 134/2/5 143/2/5
f 145/2/5 136/2/5 135/2/5
f 145/1/5 135/1/5 144/1/5
f 146/1/5 137/1/5 136/1/5
f 146/2/5 136/2/5 145/2/5
f 147/2/5 138/2/5 137/2/5
f 147/1/5 137/1/5 146/1/5
f 148/2/5 138/2/5 147/2/5
f 149/3/5 140/3/5 139/3/5
f 150/2/5 141/2/5 140/2/5
f 150/3/5 140/3/5 149/3/5
f 151/3/5 142/3/5 141/3/5
f 151/2/5 141/2/5 150/2/5
f 152/2/5 143/2/5 142/2/5
f 152/3/5 142/3/5 151/3/5
f 153/3/5 144/3/5 143/3/5
f 153/2/5 143/2/5 152/2/5
f 154/2/5 145/2/5 144/2/5
f 154/3/5 144/3/5 153/3/5
f 155/3/5 146/3/5 145/3/5
f 155/2/5 145/2/5 154/2/5
f 156/2/5 147/2/5 146/2/5
f 156/3/5 146/3/5 155/3/5
f 157/3/5 148/3/5 147/3/5
f 157/2/5 147/2/5 156/2/5
f 158/3/5 148/3/5 157/3/5
f 159/1/5 150/1/5 149/1/5
f 159/1/5 151/1/5 150/1/5
f 159/1/5 158/1/5 157/1/5
f 159/1/5 157/1/5 156/1/5
f 159/1/5 156/1/5 155/1/5
f 159/1/5 155/1/5 154/1/5
f 159/1/5 154/1/5 153/1/5
f 159/1/5 153/1/5 152/1/5
f 159/1/5 152/1/5 151/1/5
f 160/1/5 158/1/5 159/1/5
f 161/1/5 158/1/5 160/1/5
f 162/1/5 158/1/5 161/1/5
f 163/1/5 158/1/5 162/1/5
f 164/1/5 158/1/5 163/1/5
f 165/1/5 158/1/5 164/1/5
f 166/1/5 158/1/5 165/1/5
f 167/1/5 158/1/5 166/1/5
f 168/1/5 158/1/5 167/1/5
f 169/2/5 160/2/5 159/2/5
f 170/1/5 161/1/5 160/1/5
f 170/2/5 160/2/5 169/2/5
f 171/2/5 162/2/5 161/2/5
f 171/1/5 161/1/5 170/1/5
f 172/1/5 163/1/5 162/1/5
f 172/2/5 162/2/5 171/2/5
f 173/2/5 164/2/5 163/2/5
f 173/1/5 163/1/5 172/1/5
f 174/1/5 165/1/5 164/1/5
f 174/2/5 164/2/5 173/2/5
f 175/2/5 166/2/5 165/2/5
f 175/1/5 165/1/5 174/1/5
f 176/1/5 167/1/5 166/1/5
f 176/2/5 166/2/5 175/2/5
f 177/2/5 168/2/5 167/2/5
f 177/1/5 167/1/5 176/1/5
f 178/2/5 168/2/5 177/2/5
f 179/3/5 170/3/5 169/3/5
f 180/2/5 171/2/5 170/2/5
f 180/3/5 170/3/5 179/3/5
f 181/3/5 172/3/5 171/3/5
f 181/2/5 171/2/5 180/2/5
f 182/2/5 173/2/5 172/2/5
f 182/3/5 172/3/5 181/3/5
f 183/3/5 174/3/5 173/3/5
f 183/2/5 173/2/5 182/2/5
f 184/2/5 175/2/5 174/2/5
f 184/3/5 174/3/5 183/3/5
f 185/3/5 176/3/5 175/3/5
f 185/2/5 175/2/5 184/2/5
f 186/2/5 177/2/5 176/2/5
f 186/3/5 176/3/5 185/3/5
f 187/3/5 178/3/5 177/3/5
f 187/2/5 177/2/5 186/2/5
f 188/3/5 178/3/5 187/3/5
f 189/1/5 180/1/5 179/1/5
f 189/1/5 181/1/5 180/1/5
f 189/1/5 188/1/5 187/1/5
f 189/1/5 187/1/5 186/1/5
f 189/1/5 186/1/5 185/1/5
f 189/1/5 185/1/5 184/1/5
f 189/1/5 184/1/5 183/1/5
f 189/1/5 183/1/5 182/1/5
f 189/1/5 182/1/5 181/1/5
f 190/1/5 188/1/5 189/1/5
f 191/1/5 188/1/5 190/1/5
f 192/1/5 188/1/5 191/1/5
f 193/1/5 188/1/5 192/1/5
f 194/1/5 188/1/5 193/1/5
f 195/1/5 188/1/5 194/1/5
f 196/1/5 188/1/5 195/1/5
f 197/1/5 188/1/5 196/1/5
f 198/1/5 188/1/5 197/1/5
f 199/2/5 190/2/5 189/2/5
f 200/1/5 191/1/5 190/1/5
f 200/2/5 190/2/5 199/2/5
f 201/2/5 192/2/5 191/2/5
f 201/1/5 191/1/5 200/1/5
f 202/1/5 193/1/5 192/1/5
f 202/2/5 192/2/5 201/2/5
f 203/2/5 194/2/5 193/2/5
f 203/1/5 193/1/5 202/1/5
f 204/1/5 195/1/5 194/1/5
f 204/2/5 194/2/5 203/2/5
f 205/2/5 196/2/5 195/2/5
f 205/1/5 195/1/5 204/1/5
f 206/1/5 197/1/5 196/1/5
f 206/2/5 196/2/5 205/2/5
f 207/2/5 198/2/5 197/2/5
f 207/1/5 197/1/5 206/1/5
f 208/2/5 198/2/5 207/2/5
f 209/3/5 200/3/5 199/3/5
f 210/2/5 201/2/5 200/2/5
f 210/3/5 200/3/5 209/3/5
f 211/3/5 202/3/5 201/3/5
f 211/2/5 201/2/5 210/2/5
f 212/2/5 203/2/5 202/2/5
f 212/3/5 202/3/5 211/3/5
f 213/3/5 204/3/5 203/3/5
f 213/2/5 203/2/5 212/2/5
f 214/2/5 205/2/5 204/2/5
f 214/3/5 204/3/5 213/3/5
f 215/3/5 206/3/5 205/3/5
f 215/2/5 205/2/5 214/2/5
f 216/2/5 207/2/5 206/2/5
f 216/3/5 206/3/5 215/3/5
f 217/3/5 208/3/5 207/3/5
f 217/2/5 207/2/5 216/2/5
f 218/3/5 208/3/5 217/3/5
f 219/1/5 210/1/5 209/1/5
f 219/1/5 211/1/5 210/1/5
f 219/1/5 218/1/5 217/1/5
f 219/1/5 217/1/5 216/1/5
f 219/1/5 216/1/5 215/1/5
f 219/1/5 215/1/5 214/1/5
f 219/1/5 214/1/5 213/1/5
f 219/1/5 213/1/5 212/1/5
f 219/1/5 212/1/5 211/1/5
f 220/1/5 218/1/5 219/1/5
f 221/1/5 218/1/5 220/1/5
f 222/1/5 218/1/5 221/1/5
f 223/1/5 218/1/5 222/1/5
f 224/1/5 218/1/5 223/1/5
f 225/1/5 218/1/5 224/1/5
f 226/1/5 218/1/5 225/1/5
f 227/1/5 219/1/5 209/1/5
f 228/2/5 220/2/5 219/2/5
f 228/1/5 219/1/5 227/1/5
f 229/1/5 221/1/5 220/1/5
f 229/2/5 220/2/5 228/2/5
f 230/2/5 222/2/5 221/2/5
f 230/1/5 221/1/5 229/1/5
f 231/1/5 223/1/5 222/1/5
f 231/2/5 222/2/5 230/2/5
f 232/2/5 224/2/5 223/2/5
f 232/1/5 223/1/5 231/1/5
f 233/1/5 225/1/5 224/1/5
f 233/2/5 224/2/5 232/2/5
f 234/2/5 226/2/5 225/2/5
f 234/1/5 225/1/5 233/1/5
f 235/2/5 226/2/5 234/2/5
f 236/4/5 228/4/5 227/4/5
f 236/1/5 229/1/5 228/1/5
f 237/4/5 230/4/5 229/4/5
f 237/1/5 229/1/5 236/1/5
f 238/1/5 231/1/5 230/1/5
f 238/4/5 230/4/5 237/4/5
f 239/4/5 232/4/5 231/4/5
f 239/1/5 231/1/5 238/1/5
f 240/1/5 233/1/5 232/1/5
f 240/4/5 232/4/5 239/4/5
f 241/4/5 234/4/5 233/4/5
f 241/1/5 233/1/5 240/1/5
f 242/1/5 235/1/5 234/1/5
f 242/4/5 234/4/5 241/4/5
f 243/1/5 235/1/5 242/1/5
f 244/4/5 241/4/5 240/4/5
f 244/4/5 236/4/5 227/4/5
f 244/4/5 243/4/5 242/4/5
f 244/4/5 242/4/5 241/4/5
f 244/4/5 240/4/5 239/4/5
f 244/4/5 239/4/5 238/4/5
f 244/4/5 238/4/5 237/4/5
f 244/4/5 237/4/5 236/4/5
f 245/4/5 243/4/5 244/4/5
f 246/4/5 243/4/5 245/4/5
f 247/4/5 243/4/5 246/4/5
f 248/4/5 243/4/5 247/4/5
f 249/2/5 245/2/5 244/2/5
f 250/1/5 246/1/5 245/1/5
f 250/2/5 245/2/5 249/2/5
f 251/2/5 247/2/5 246/2/5
f 251/1/5 246/1/5 250/1/5
f 252/1/5 248/1/5 247/1/5
f 252/2/5 247/2/5 251/2/5
f 253/1/5 248/1/5 252/1/5
f 254/3/5 250/3/5 249/3/5
f 255/2/5 251/2/5 250/2/5
f 255/3/5 250/3/5 254/3/5
f 256/3/5 252/3/5 251/3/5
f 256/2/5 251/2/5 255/2/5
f 257/2/5 253/2/5 252/2/5
f 257/3/5 252/3/5 256/3/5
f 258/2/5 253/2/5 257/2/5
f 259/2/6 260/2/6 269/2/6
f 260/1/6 261/1/6 270/1/6
f 269/2/6 260/2/6 270/2/6
f 261/2/6 262/2/6 271/2/6
f 270/1/6 261/1/6 271/1/6
f 262/1/6 263/1/6 272/1/6
f 271/2/6 262/2/6 272/2/6
f 263/2/6 264/2/6 273/2/6
f 272/1/6 263/1/6 273/1/6
f 264/1/6 265/1/6 274/1/6
f 273/2/6 264/2/6 274/2/6
f 265/2/6 266/2/6 275/2/6
f 274/1/6 265/1/6 275/1/6
f 266/1/6 267/1/6 276/1/6
f 275/2/6 266/2/6 276/2/6
f 267/2/6 268/2/6 277/2/6
f 276/1/6 267/1/6 277/1/6
f 277/2/6 268/2/6 278/2/6
f 269/3/6 270/3/6 279/3/6
f 270/2/6 271/2/6 280/2/6
f 279/3/6 270/3/6 280/3/6
f 271/3/6 272/3/6 281/3/6
f 280/2/6 271/2/6 281/2/6
f 272/2/6 273/2/6 282/2/6
f 281/3/6 272/3/6 282/3/6
f 273/3/6 274/3/6 283/3/6
f 282/2/6 273/2/6 283/2/6
f 274/2/6 275/2/6 284/2/6
f 283/3/6 274/3/6 284/3/6
f 275/3/6 276/3/6 285/3/6
f 284/2/6 275/2/6 285/2/6
f 276/2/6 277/2/6 286/2/6
f 285/3/6 276/3/6 286/3/6
f 277/3/6 278/3/6 287/3/6
f 286/2/6 277/2/6 287/2/6
f 287/3/6 278/3/6 288/3/6
f 283/1/6 284/1/6 289/1/6
f 279/1/6 280/1/6 289/1/6
f 287/1/6 288/1/6 289/1/6
f 286/1/6 287/1/6 289/1/6
f 285/1/6 286/1/6 289/1/6
f 284/1/6 285/1/6 289/1/6
f 282/1/6 283/1/6 289/1/6
f 281/1/6 282/1/6 289/1/6
f 280/1/6 281/1/6 289/1/6
f 289/1/6 288/1/6 290/1/6
f 290/1/6 288/1/6 291/1/6
f 291/1/6 288/1/6 292/1/6
f 292/1/6 288/1/6 293/1/6
f 293/1/6 288/1/6 294/1/6
f 294/1/6 288/1/6 295/1/6
f 295/1/6 288/1/6 296/1/6
f 296/1/6 288/1/6 297/1/6
f 297/1/6 288/1/6 298/1/6
f 289/2/6 290/2/6 299/2/6
f 290/1/6 291/1/6 300/1/6
f 299/2/6 290/2/6 300/2/6
f 291/2/6 292/2/6 301/2/6
f 300/1/6 291/1/6 301/1/6
f 292/1/6 293/1/6 302/1/6
f 301/2/6 292/2/6 302/2/6
f 293/2/6 294/2/6 303/2/6
f 302/1/6 293/1/6 303/1/6
f 294/1/6 295/1/6 304/1/6
f 303/2/6 294/2/6 304/2/6
f 295/2/6 296/2/6 305/2/6
f 304/1/6 295/1/6 305/1/6
f 296/1/6 297/1/6 306/1/6
f 305/2/6 296/2/6 306/2/6
f 297/2/6 298/2/6 307/2/6
f 306/1/6 297/1/6 307/1/6
f 307/2/6 298/2/6 308/2/6
f 299/3/6 300/3/6 309/3/6
f 300/2/6 301/2/6 310/2/6
f 309/3/6 300/3/6 310/3/6
f 301/3/6 302/3/6 311/3/6
f 310/2/6 301/2/6 311/2/6
f 302/2/6 303/2/6 312/2/6
f 311/3/6 302/3/6 312/3/6
f 303/3/6 304/3/6 313/3/6
f 312/2/6 303/2/6 313/2/6
f 304/2/6 305/2/6 314/2/6
f 313/3/6 304/3/6 314/3/6
f 305/3/6 306/3/6 315/3/6
f 314/2/6 305/2/6 315/2/6
f 306/2/6 307/2/6 316/2/6
f 315/3/6 306/3/6 316/3/6
f 307/3/6 308/3/6 317/3/6
f 316/2/6 307/2/6 317/2/6
f 317/3/6 308/3/6 318/3/6
f 309/1/6 310/1/6 319/1/6
f 310/1/6 311/1/6 319/1/6
f 317/1/6 318/1/6 319/1/6
f 316/1/6 317/1/6 319/1/6
f 315/1/6 316/1/6 319/1/6
f 314/1/6 315/1/6 319/1/6
f 313/1/6 314/1/6 319/1/6
f 312/1/6 313/1/6 319/1/6
f 311/1/6 312/1/6 319/1/6
f 319/1/6 318/1/6 320/1/6
f 320/1/6 318/1/6 321/1/6
f 321/1/6 318/1/6 322/1/6
f 322/1/6 318/1/6 323/1/6
f 323/1/6 318/1/6 324/1/6
f 324/1/6 318/1/6 325/1/6
f 325/1/6 318/1/6 326/1/6
f 326/1/6 318/1/6 327/1/6
f 327/1/6 318/1/6 328/1/6
f 319/2/6 320/2/6 329/2/6
f 320/1/6 321/1/6 330/1/6
f 329/2/6 320/2/6 330/2/6
f 321/2/6 322/2/6 331/2/6
f 330/1/6 321/1/6 331/1/6
f 322/1/6 323/1/6 332/1/6
f 331/2/6 322/2/6 332/2/6
f 323/2/6 324/2/6 333/2/6
f 332/1/6 323/1/6 333/1/6
f 324/1/6 325/1/6 334/1/6
f 333/2/6 324/2/6 334/2/6
f 325/2/6 326/2/6 335/2/6
f 334/1/6 325/1/6 335/1/6
f 326/1/6 327/1/6 336/1/6
f 335/2/6 326/2/6 336/2/6
f 327/2/6 328/2/6 337/2/6
f 336/1/6 327/1/6 337/1/6
f 337/2/6 328/2/6 338/2/6
f 329/3/6 330/3/6 339/3/6
f 330/2/6 331/2/6 340/2/6
f 339/3/6 330/3/6 340/3/6
f 331/3/6 332/3/6 341/3/6
f 340/2/6 331/2/6 341/2/6
f 332/2/6 333/2/6 342/2/6
f 341/3/6 332/3/6 342/3/6
f 333/3/6 334/3/6 343/3/6
f 342/2/6 333/2/6 343/2/6
f 334/2/6 335/2/6 344/2/6
f 343/3/6 334/3/6 344/3/6
f 335/3/6 336/3/6 345/3/6
f 344/2/6 335/2/6 345/2/6
f 336/2/6 337/2/6 346/2/6
f 345/3/6 336/3/6 346/3/6
f 337/3/6 338/3/6 347/3/6
f 346/2/6 337/2/6 347/2/6
f 347/3/6 338/3/6 348/3/6
f 339/1/6 340/1/6 349/1/6
f 340/1/6 341/1/6 349/1/6
f 347/1/6 348/1/6 349/1/6
f 346/1/6 347/1/6 349/1/6
f 345/1/6 346/1/6 349/1/6
f 344/1/6 345/1/6 349/1/6
f 343/1/6 344/1/6 349/1/6
f 342/1/6 343/1/6 349/1/6
f 341/1/6 342/1/6 349/1/6
f 349/1/6 348/1/6 350/1/6
f 350/1/6 348/1/6 351/1/6
f 351/1/6 348/1/6 352/1/6
f 352/1/6 348/1/6 353/1/6
f 353/1/6 348/1/6 354/1/6
f 354/1/6 348/1/6 355/1/6
f 355/1/6 348/1/6 356/1/6
f 356/1/6 348/1/6 357/1/6
f 357/1/6 348/1/6 358/1/6
f 349/2/6 350/2/6 359/2/6
f 350/1/6 351/1/6 360/1/6
f 359/2/6 350/2/6 360/2/6
f 351/2/6 352/2/6 361/2/6
f 360/1/6 351/1/6 361/1/6
f 352/1/6 353/1/6 362/1/6
f 361/2/6 352/2/6 362/2/6
f 353/2/6 354/2/6 363/2/6
f 362/1/6 353/1/6 363/1/6
f 354/1/6 355/1/6 364/1/6
f 363/2/6 354/2/6 364/2/6
f 355/2/6 356/2/6 365/2/6
f 364/1/6 355/1/6 365/1/6
f 356/1/6 357/1/6 366/1/6
f 365/2/6 356/2/6 366/2/6
f 357/2/6 358/2/6 367/2/6
f 366/1/6 357/1/6 367/1/6
f 367/2/6 358/2/6 368/2/6
f 359/3/6 360/3/6 369/3/6
f 360/2/6 361/2/6 370/2/6
f 369/3/6 360/3/6 370/3/6
f 361/3/6 362/3/6 371/3/6
f 370/2/6 361/2/6 371/2/6
f 362/2/6 363/2/6 372/2/6
f 371/3/6 362/3/6 372/3/6
f 363/3/6 364/3/6 373/3/6
f 372/2/6 363/2/6 373/2/6
f 364/2/6 365/2/6 374/2/6
f 373/3/6 364/3/6 374/3/6
f 365/3/6 366/3/6 375/3/6
f 374/2/6 365/2/6 375/2/6
f 366/2/6 367/2/6 376/2/6
f 375/3/6 366/3/6 376/3/6
f 367/3/6 368/3/6 377/3/6
f 376/2/6 367/2/6 377/2/6
f 377/3/6 368/3/6 378/3/6
f 369/1/6 370/1/6 379/1/6
f 370/1/6 371/1/6 379/1/6
f 377/1/6 378/1/6 379/1/6
f 376/1/6 377/1/6 379/1/6
f 375/1/6 376/1/6 379/1/6
f 374/1/6 375/1/6 379/1/6
f 373/1/6 374/1/6 379/1/6
f 372/1/6 373/1/6 379/1/6
f 371/1/6 372/1/6 379/1/6
f 379/1/6 378/1/6 380/1/6
f 380/1/6 378/1/6 381/1/6
f 381/1/6 378/1/6 382/1/6
f 382/1/6 378/1/6 383/1/6
f 383/1/6 378/1/6 384/1/6
f 384/1/6 378/1/6 385/1/6
f 385/1/6 378/1/6 386/1/6
f 369/1/6 379/1/6 387/1/6
f 379/2/6 380/2/6 388/2/6
f 387/1/6 379/1/6 388/1/6
f 380/1/6 381/1/6 389/1/6
f 388/2/6 380/2/6 389/2/6
f 381/2/6 382/2/6 390/2/6
f 389/1/6 381/1/6 390/1/6
f 382/1/6 383/1/6 391/1/6
f 390/2/6 382/2/6 391/2/6
f 383/2/6 384/2/6 392/2/6
f 391/1/6 383/1/6 392/1/6
f 384/1/6 385/1/6 393/1/6
f 392/2/6 384/2/6 393/2/6
f 385/2/6 386/2/6 394/2/6
f 393/1/6 385/1/6 394/1/6
f 394/2/6 386/2/6 395/2/6
f 387/4/6 388/4/6 396/4/6
f 388/1/6 389/1/6 396/1/6
f 389/4/6 390/4/6 397/4/6
f 396/1/6 389/1/6 397/1/6
f 390/1/6 391/1/6 398/1/6
f 397/4/6 390/4/6 398/4/6
f 391/4/6 392/4/6 399/4/6
f 398/1/6 391/1/6 399/1/6
f 392/1/6 393/1/6 400/1/6
f 399/4/6 392/4/6 400/4/6
f 393/4/6 394/4/6 401/4/6
f 400/1/6 393/1/6 401/1/6
f 394/1/6 395/1/6 402/1/6
f 401/4/6 394/4/6 402/4/6
f 402/1/6 395/1/6 403/1/6
f 400/4/6 401/4/6 404/4/6
f 387/4/6 396/4/6 404/4/6
f 402/4/6 403/4/6 404/4/6
f 401/4/6 402/4/6 404/4/6
f 399/4/6 400/4/6 404/4/6
f 398/4/6 399/4/6 404/4/6
f 397/4/6 398/4/6 404/4/6
f 396/4/6 397/4/6 404/4/6
f 404/4/6 403/4/6 405/4/6
f 405/4/6 403/4/6 406/4/6
f 406/4/6 403/4/6 407/4/6
f 407/4/6 403/4/6 408/4/6
f 404/2/6 405/2/6 409/2/6
f 405/1/6 406/1/6 410/1/6
f 409/2/6 405/2/6 410/2/6
f 406/2/6 407/2/6 411/2/6
f 410/1/6 406/1/6 411/1/6
f 407/1/6 408/1/6 412/1/6
f 411/2/6 407/2/6 412/2/6
f 412/1/6 408/1/6 413/1/6
f 409/3/6 410/3/6 414/3/6
f 410/2/6 411/2/6 415/2/6
f 414/3/6 410/3/6 415/3/6
f 411/3/6 412/3/6 416/3/6
f 415/2/6 411/2/6 416/2/6
f 412/2/6 413/2/6 417/2/6
f 416/3/6 412/3/6 417/3/6
f 417/2/6 413/2/6 418/2/6
